HIERARCHY
ROOT Hips
{
	OFFSET 0.000000 83.214638 0.000000
	CHANNELS 6 Xposition Yposition Zposition Xrotation Yrotation Zrotation
	JOINT Pelvis
	{
		OFFSET 0.000000 0.000000 0.000000
		CHANNELS 3 Xrotation Yrotation Zrotation
		JOINT LeftUpLeg
		{
			OFFSET 8.479700 -4.795502 -0.379100
			CHANNELS 3 Xrotation Yrotation Zrotation
			JOINT LeftLeg
			{
				OFFSET 0.024144 -32.555107 0.112900
				CHANNELS 3 Xrotation Yrotation Zrotation
				JOINT LeftFoot
				{
					OFFSET -0.024144 -32.638630 -3.012600
					CHANNELS 3 Xrotation Yrotation Zrotation
					JOINT LeftToeBase
					{
						OFFSET 0.970200 -13.225400 11.864200
						CHANNELS 3 Xrotation Yrotation Zrotation
						End Site
						{
							OFFSET 0.000000 12.319262 0.000000
						}
					}
					JOINT LFootTongue
					{
						OFFSET 1.142400 -1.059800 6.665200
						CHANNELS 3 Xrotation Yrotation Zrotation
						End Site
						{
							OFFSET 0.000000 12.319262 0.000000
						}
					}
				}
				JOINT LeftPantLeg
				{
					OFFSET 0.918482 -16.533964 -2.284700
					CHANNELS 3 Xrotation Yrotation Zrotation
					End Site
					{
						OFFSET 0.350399 24.744368 0.000000
					}
				}
			}
		}
		JOINT RightUpLeg
		{
			OFFSET -8.479700 -4.795502 -0.379100
			CHANNELS 3 Xrotation Yrotation Zrotation
			JOINT RightLeg
			{
				OFFSET -0.023144 -32.555092 0.112900
				CHANNELS 3 Xrotation Yrotation Zrotation
				JOINT RightFoot
				{
					OFFSET 0.023144 -32.638641 -3.012700
					CHANNELS 3 Xrotation Yrotation Zrotation
					JOINT RightToeBase
					{
						OFFSET -0.970200 -13.225400 11.864200
						CHANNELS 3 Xrotation Yrotation Zrotation
						End Site
						{
							OFFSET 0.000000 12.319244 0.000000
						}
					}
					JOINT RFootTongue
					{
						OFFSET -1.142200 -1.059800 6.665200
						CHANNELS 3 Xrotation Yrotation Zrotation
						End Site
						{
							OFFSET 0.000000 12.319243 0.000000
						}
					}
				}
				JOINT RightPantLeg
				{
					OFFSET -0.919482 -16.533978 -2.284800
					CHANNELS 3 Xrotation Yrotation Zrotation
					End Site
					{
						OFFSET -0.350400 24.744419 0.000000
					}
				}
			}
		}
	}
	JOINT Spine
	{
		OFFSET 0.000000 7.722000 1.166200
		CHANNELS 3 Xrotation Yrotation Zrotation
		JOINT Spine1
		{
			OFFSET 0.000000 12.024101 0.248800
			CHANNELS 3 Xrotation Yrotation Zrotation
			JOINT Spine2
			{
				OFFSET 0.000000 11.502998 -0.491200
				CHANNELS 3 Xrotation Yrotation Zrotation
				JOINT Neck
				{
					OFFSET 0.000000 18.430702 -3.123100
					CHANNELS 3 Xrotation Yrotation Zrotation
					JOINT Head
					{
						OFFSET 0.000000 9.051102 1.034000
						CHANNELS 3 Xrotation Yrotation Zrotation
						JOINT HairB
						{
							OFFSET 0.208400 24.786102 24.822300
							CHANNELS 3 Xrotation Yrotation Zrotation
							End Site
							{
								OFFSET 0.000000 32.263779 0.000000
							}
						}
						JOINT HairA
						{
							OFFSET -7.081100 24.428299 23.196600
							CHANNELS 3 Xrotation Yrotation Zrotation
							End Site
							{
								OFFSET 0.000000 32.263779 0.000000
							}
						}
						JOINT Hat
						{
							OFFSET 16.728800 15.048294 -15.439601
							CHANNELS 3 Xrotation Yrotation Zrotation
							End Site
							{
								OFFSET 0.000000 32.263779 0.000000
							}
						}
					}
				}
				JOINT LeftShoulder
				{
					OFFSET 6.197800 13.665199 -4.064700
					CHANNELS 3 Xrotation Yrotation Zrotation
					JOINT LeftArm
					{
						OFFSET 7.778100 -0.187103 -1.709300
						CHANNELS 3 Xrotation Yrotation Zrotation
						JOINT LeftForeArm
						{
							OFFSET 22.049376 0.000000 0.000000
							CHANNELS 3 Xrotation Yrotation Zrotation
							JOINT LeftHand
							{
								OFFSET 23.009392 0.000000 0.000000
								CHANNELS 3 Xrotation Yrotation Zrotation
								JOINT LeftHandThumb1
								{
									OFFSET 3.507191 -2.063065 3.133727
									CHANNELS 3 Xrotation Yrotation Zrotation
									JOINT LeftHandThumb2
									{
										OFFSET 3.101337 -1.790558 1.790558
										CHANNELS 3 Xrotation Yrotation Zrotation
										JOINT LeftHandThumb3
										{
											OFFSET 3.058640 -1.765907 1.765906
											CHANNELS 3 Xrotation Yrotation Zrotation
											End Site
											{
												OFFSET -0.415260 3.926476 -0.049563
											}
										}
									}
								}
								JOINT LeftHandIndex1
								{
									OFFSET 11.334419 -0.901459 3.706815
									CHANNELS 3 Xrotation Yrotation Zrotation
									JOINT LeftHandIndex2
									{
										OFFSET 3.283112 0.000000 0.000000
										CHANNELS 3 Xrotation Yrotation Zrotation
										JOINT LeftHandIndex3
										{
											OFFSET 3.323853 0.000000 0.000000
											CHANNELS 3 Xrotation Yrotation Zrotation
											End Site
											{
												OFFSET -1.135597 3.097809 0.402452
											}
										}
									}
								}
								JOINT LeftHandMiddle1
								{
									OFFSET 11.335861 0.000000 0.000000
									CHANNELS 3 Xrotation Yrotation Zrotation
									JOINT LeftHandMiddle2
									{
										OFFSET 3.410492 0.000000 0.000000
										CHANNELS 3 Xrotation Yrotation Zrotation
										JOINT LeftHandMiddle3
										{
											OFFSET 3.312172 0.000000 0.000000
											CHANNELS 3 Xrotation Yrotation Zrotation
											End Site
											{
												OFFSET -1.150200 3.080154 0.400270
											}
										}
									}
								}
								JOINT LeftHandRing1
								{
									OFFSET 11.514786 -0.013176 -3.003090
									CHANNELS 3 Xrotation Yrotation Zrotation
									JOINT LeftHandRing2
									{
										OFFSET 3.053307 0.000000 0.000000
										CHANNELS 3 Xrotation Yrotation Zrotation
										JOINT LeftHandRing3
										{
											OFFSET 3.295807 0.000000 0.000000
											CHANNELS 3 Xrotation Yrotation Zrotation
											End Site
											{
												OFFSET -1.281006 3.013344 0.375733
											}
										}
									}
								}
								JOINT LeftHandPinky1
								{
									OFFSET 10.518692 -0.960396 -5.730441
									CHANNELS 3 Xrotation Yrotation Zrotation
									JOINT LeftHandPinky2
									{
										OFFSET 2.861649 0.000000 0.000000
										CHANNELS 3 Xrotation Yrotation Zrotation
										JOINT LeftHandPinky3
										{
											OFFSET 2.863380 0.000000 0.000000
											CHANNELS 3 Xrotation Yrotation Zrotation
											End Site
											{
												OFFSET -0.843597 2.711159 0.369971
											}
										}
									}
								}
							}
							JOINT LSleeve
							{
								OFFSET 6.676277 -0.344902 -1.011730
								CHANNELS 3 Xrotation Yrotation Zrotation
								End Site
								{
									OFFSET 0.000000 14.885353 0.000000
								}
							}
						}
					}
				}
				JOINT RightShoulder
				{
					OFFSET -6.197800 13.665199 -4.064700
					CHANNELS 3 Xrotation Yrotation Zrotation
					JOINT RightArm
					{
						OFFSET -7.778100 -0.187103 -1.709300
						CHANNELS 3 Xrotation Yrotation Zrotation
						JOINT RightForeArm
						{
							OFFSET -22.049376 0.000000 0.000000
							CHANNELS 3 Xrotation Yrotation Zrotation
							JOINT RightHand
							{
								OFFSET -23.009392 0.000000 0.000000
								CHANNELS 3 Xrotation Yrotation Zrotation
								JOINT RightHandThumb1
								{
									OFFSET -3.507191 -2.063065 3.133727
									CHANNELS 3 Xrotation Yrotation Zrotation
									JOINT RightHandThumb2
									{
										OFFSET -3.101337 -1.790558 1.790558
										CHANNELS 3 Xrotation Yrotation Zrotation
										JOINT RightHandThumb3
										{
											OFFSET -3.058640 -1.765907 1.765906
											CHANNELS 3 Xrotation Yrotation Zrotation
											End Site
											{
												OFFSET 0.415260 3.926476 -0.049563
											}
										}
									}
								}
								JOINT RightHandIndex1
								{
									OFFSET -11.334419 -0.901459 3.706815
									CHANNELS 3 Xrotation Yrotation Zrotation
									JOINT RightHandIndex2
									{
										OFFSET -3.283112 0.000000 0.000000
										CHANNELS 3 Xrotation Yrotation Zrotation
										JOINT RightHandIndex3
										{
											OFFSET -3.323853 0.000000 0.000000
											CHANNELS 3 Xrotation Yrotation Zrotation
											End Site
											{
												OFFSET 1.135597 3.097809 0.402452
											}
										}
									}
								}
								JOINT RightHandMiddle1
								{
									OFFSET -11.335861 0.000000 0.000000
									CHANNELS 3 Xrotation Yrotation Zrotation
									JOINT RightHandMiddle2
									{
										OFFSET -3.410492 0.000000 0.000000
										CHANNELS 3 Xrotation Yrotation Zrotation
										JOINT RightHandMiddle3
										{
											OFFSET -3.312172 0.000000 0.000000
											CHANNELS 3 Xrotation Yrotation Zrotation
											End Site
											{
												OFFSET 1.150200 3.080154 0.400270
											}
										}
									}
								}
								JOINT RightHandRing1
								{
									OFFSET -11.514786 -0.013176 -3.003090
									CHANNELS 3 Xrotation Yrotation Zrotation
									JOINT RightHandRing2
									{
										OFFSET -3.053307 0.000000 0.000000
										CHANNELS 3 Xrotation Yrotation Zrotation
										JOINT RightHandRing3
										{
											OFFSET -3.295807 0.000000 0.000000
											CHANNELS 3 Xrotation Yrotation Zrotation
											End Site
											{
												OFFSET 1.281006 3.013344 0.375733
											}
										}
									}
								}
								JOINT RightHandPinky1
								{
									OFFSET -10.518692 -0.960396 -5.730441
									CHANNELS 3 Xrotation Yrotation Zrotation
									JOINT RightHandPinky2
									{
										OFFSET -2.861649 0.000000 0.000000
										CHANNELS 3 Xrotation Yrotation Zrotation
										JOINT RightHandPinky3
										{
											OFFSET -2.863380 0.000000 0.000000
											CHANNELS 3 Xrotation Yrotation Zrotation
											End Site
											{
												OFFSET 0.843597 2.711159 0.369971
											}
										}
									}
								}
							}
							JOINT RSleeve
							{
								OFFSET -6.676277 -0.344902 -1.011730
								CHANNELS 3 Xrotation Yrotation Zrotation
								End Site
								{
									OFFSET 0.000000 14.885353 0.000000
								}
							}
						}
					}
				}
				JOINT Backpack
				{
					OFFSET 0.000000 -2.471497 36.677502
					CHANNELS 3 Xrotation Yrotation Zrotation
					End Site
					{
						OFFSET 0.000000 20.427315 0.000000
					}
				}
				JOINT Hood
				{
					OFFSET 0.000000 18.754097 -10.431000
					CHANNELS 3 Xrotation Yrotation Zrotation
					JOINT Hood1
					{
						OFFSET 0.000000 -5.011002 -7.685901
						CHANNELS 3 Xrotation Yrotation Zrotation
						End Site
						{
							OFFSET 0.000000 9.175140 0.000000
						}
					}
				}
				JOINT LHoodieString
				{
					OFFSET 5.250500 16.397697 3.089900
					CHANNELS 3 Xrotation Yrotation Zrotation
					JOINT LHoodieString1
					{
						OFFSET 0.257700 -6.364304 3.694600
						CHANNELS 3 Xrotation Yrotation Zrotation
						JOINT LHoodieString2
						{
							OFFSET 0.000000 -9.643799 2.679100
							CHANNELS 3 Xrotation Yrotation Zrotation
							End Site
							{
								OFFSET 0.000000 10.009018 0.000000
							}
						}
					}
				}
				JOINT RHoodieString
				{
					OFFSET -5.250500 16.397697 3.089900
					CHANNELS 3 Xrotation Yrotation Zrotation
					JOINT RHoodieString1
					{
						OFFSET -0.257700 -6.364304 3.694600
						CHANNELS 3 Xrotation Yrotation Zrotation
						JOINT RHoodieString2
						{
							OFFSET 0.000000 -9.643799 2.679100
							CHANNELS 3 Xrotation Yrotation Zrotation
							End Site
							{
								OFFSET 0.000000 10.009018 0.000000
							}
						}
					}
				}
			}
			JOINT LBackpack_Strap
			{
				OFFSET 15.223200 -7.719803 -6.610900
				CHANNELS 3 Xrotation Yrotation Zrotation
				End Site
				{
					OFFSET 0.000000 16.040596 0.000000
				}
			}
			JOINT RBackpack_Strap
			{
				OFFSET -15.223000 -7.719803 -6.610900
				CHANNELS 3 Xrotation Yrotation Zrotation
				End Site
				{
					OFFSET 0.000000 16.040596 0.000000
				}
			}
		}
	}
	JOINT BoyFacialAnim_Joint
	{
		OFFSET 1.000000 -82.208099 -1.550900
		CHANNELS 3 Xrotation Yrotation Zrotation
		End Site
		{
			OFFSET 0.000000 30.012791 0.000000
		}
	}
}
MOTION
Frames: 4
Frame Time: 0.033333
-115.030991 69.560379 0.711278 17.191724 -51.281327 16.821783 -0.000001 -0.000001 -0.000000 -34.079041 -3.278692 7.586169 69.792137 -3.435307 0.396245 -28.280379 4.448242 -10.116345 0.000001 -0.000001 0.000002 0.000001 -0.000001 0.000002 0.000001 0.000002 0.000001 -65.749013 -5.984251 -29.338640 31.919264 -3.370471 4.151315 -2.459818 -0.009930 10.381624 0.000001 0.000000 -0.000000 0.000001 0.000000 -0.000000 -0.000001 0.000001 -0.000000 19.361691 -7.218377 -1.389799 4.735513 -10.611692 2.346605 5.242025 -10.206794 3.219125 -12.795400 3.718773 4.284874 20.678299 69.398444 -32.385407 0.000000 0.000000 -0.000000 0.000000 0.000000 -0.000000 0.000000 0.000000 -0.000000 1.556002 17.141502 9.108879 -47.304084 -26.550207 -12.535952 0.223115 -12.073820 -0.632999 -40.082924 0.259199 3.589826 11.895883 3.373132 -20.836961 5.758292 28.906163 11.598581 0.000003 -0.000000 -0.000000 5.494372 6.238259 -67.682899 5.950179 7.312627 -73.753742 -0.000002 0.000001 -0.000002 2.754597 11.316816 -76.381329 6.578754 9.524384 -73.212074 0.000002 -0.000001 -0.000002 2.482411 23.874189 -68.387078 6.670275 8.510486 -71.686401 0.000001 -0.000001 -0.000006 -2.752999 19.481016 -56.530839 9.632829 8.705734 -89.332871 0.000001 0.000002 0.000002 0.000000 0.000000 0.000000 14.931246 -3.626804 -5.261449 -68.270220 55.017611 31.626378 2.933160 128.998955 -2.328753 -66.856986 -4.033421 -0.084957 0.277460 -1.521446 -1.570536 7.169041 -41.689682 -15.773521 -0.000000 0.000004 0.000001 6.412807 -12.738432 14.389547 9.941747 -7.465152 101.743277 -0.000000 0.000001 -0.000002 2.653173 -11.302316 44.730936 9.916086 -9.880727 94.351209 0.000000 0.000000 0.000003 2.140154 -7.454487 61.765025 9.609236 -8.992480 89.388694 -0.000000 0.000001 0.000002 -4.886652 -23.798134 68.396155 13.518264 -7.949244 112.864915 -0.000000 -0.000001 -0.000000 -0.000001 -0.000001 -0.000000 0.000003 0.000000 -0.000000 0.000003 0.000000 -0.000000 0.000003 0.000000 -0.000000 0.000003 0.000000 -0.000000 0.000003 0.000000 -0.000000 0.000001 -0.000000 -0.000001 0.000003 0.000000 -0.000000 0.000003 0.000000 -0.000000 0.000001 -0.000000 -0.000001 -0.000003 0.000001 -0.000002 -0.000003 0.000001 -0.000002 -0.000001 -0.000001 -0.000000 
-118.782349 69.375076 0.575952 16.716222 -51.434224 16.661442 0.000001 0.000002 -0.000001 -35.589462 -5.036902 9.334300 73.199738 -1.268835 0.577506 -17.905327 0.215468 -11.082689 0.000001 -0.000001 0.000001 0.000001 -0.000001 0.000000 -0.000001 -0.000001 -0.000002 -65.783539 -5.878099 -28.663254 32.919507 -4.057279 5.004854 7.367059 0.955156 6.083486 0.000001 -0.000000 -0.000000 0.000001 -0.000000 -0.000000 -0.000001 -0.000000 -0.000000 20.016114 -6.753264 -0.199972 4.515338 -10.724695 1.687787 5.077205 -10.398497 2.546862 -12.845608 3.725923 4.236317 19.732930 69.095075 -31.783968 0.000001 0.000000 -0.000000 0.000001 0.000000 -0.000000 0.000001 0.000000 -0.000000 1.660768 16.997373 8.959950 -47.771825 -26.821832 -12.486989 0.347629 -12.037073 -0.603077 -40.314341 0.411295 3.790143 11.895882 3.373129 -20.836964 5.758290 28.906163 11.598579 -0.000001 -0.000001 0.000002 5.494370 6.238260 -67.682899 5.950181 7.312622 -73.753742 -0.000005 -0.000001 -0.000002 2.754596 11.316813 -76.381322 6.578754 9.524379 -73.212074 0.000002 -0.000001 -0.000002 2.482410 23.874192 -68.387085 6.670276 8.510484 -71.686401 -0.000001 0.000004 -0.000001 -2.753002 19.481013 -56.530839 9.632831 8.705731 -89.332871 0.000002 0.000002 0.000002 -0.000000 0.000003 0.000000 14.900184 -3.596548 -5.065711 -68.748490 54.577842 31.787653 8.121434 129.298896 -6.166609 -63.734203 -4.279479 -0.004452 0.277463 -1.521447 -1.570535 7.169039 -41.689678 -15.773521 0.000002 -0.000002 -0.000001 6.412812 -12.738433 14.389547 9.941744 -7.465146 101.743277 -0.000000 -0.000003 -0.000002 2.653175 -11.302315 44.730940 9.916088 -9.880728 94.351202 0.000003 0.000000 0.000003 2.140161 -7.454488 61.765025 9.609237 -8.992482 89.388694 -0.000000 -0.000001 0.000004 -4.886651 -23.798134 68.396162 13.518267 -7.949245 112.864915 0.000000 -0.000001 0.000002 -0.000002 0.000001 0.000000 -0.000000 0.000000 -0.000000 -0.000000 0.000000 -0.000000 -0.000000 0.000000 -0.000000 -0.000000 0.000000 -0.000000 -0.000000 0.000000 -0.000001 -0.000000 -0.000001 -0.000002 -0.000000 0.000000 -0.000000 -0.000000 0.000000 -0.000001 -0.000000 -0.000001 -0.000002 0.000004 -0.000001 -0.000001 0.000004 -0.000001 -0.000001 0.000001 0.000002 -0.000001 
-122.361427 69.233231 0.480372 16.390308 -51.865270 16.342812 -0.000001 -0.000001 -0.000000 -38.318133 -7.229622 10.435678 75.509381 3.338909 0.963433 -0.493950 -5.772619 -9.318390 0.000003 0.000000 0.000001 0.000003 0.000000 -0.000000 0.000003 0.000002 -0.000003 -65.355772 -6.109180 -27.271820 35.227797 -4.955497 5.538481 12.249773 0.592260 0.848875 -0.000001 -0.000000 -0.000000 -0.000001 -0.000000 -0.000000 -0.000000 0.000001 0.000000 20.609607 -6.123356 1.083391 4.330624 -10.719147 1.058149 4.929867 -10.469354 1.895974 -12.930619 3.747726 4.132437 18.943398 68.792730 -31.246575 0.000001 -0.000000 -0.000001 0.000001 -0.000000 -0.000001 0.000001 -0.000000 -0.000001 1.723054 16.844715 8.874144 -48.226128 -27.073661 -12.533042 0.529616 -11.975938 -0.555745 -40.578205 0.538606 3.957114 11.895883 3.373130 -20.836961 5.758291 28.906160 11.598583 0.000002 0.000001 -0.000001 5.494364 6.238260 -67.682899 5.950179 7.312619 -73.753735 -0.000004 -0.000001 -0.000005 2.754593 11.316817 -76.381329 6.578753 9.524382 -73.212074 0.000006 -0.000003 0.000001 2.482416 23.874194 -68.387078 6.670276 8.510482 -71.686401 0.000000 0.000000 -0.000000 -2.752998 19.481013 -56.530836 9.632832 8.705738 -89.332877 0.000002 0.000000 0.000001 -0.000000 0.000001 0.000000 14.874113 -3.558795 -4.897875 -68.633135 54.234031 31.391679 3.958347 129.122226 -3.059700 -66.373941 -4.504492 0.182276 0.277461 -1.521447 -1.570535 7.169044 -41.689672 -15.773521 -0.000000 -0.000003 -0.000002 6.412809 -12.738433 14.389547 9.941746 -7.465145 101.743277 -0.000000 -0.000001 0.000002 2.653174 -11.302314 44.730936 9.916089 -9.880725 94.351202 -0.000002 0.000000 -0.000000 2.140156 -7.454487 61.765025 9.609237 -8.992481 89.388694 -0.000002 -0.000000 0.000002 -4.886651 -23.798129 68.396155 13.518264 -7.949246 112.864915 -0.000000 -0.000001 0.000000 -0.000000 0.000001 0.000000 0.000000 -0.000000 0.000000 0.000000 -0.000000 0.000000 0.000000 -0.000000 0.000000 0.000000 -0.000000 0.000000 0.000000 -0.000000 0.000002 0.000000 0.000000 -0.000000 0.000000 -0.000000 0.000000 0.000000 -0.000000 0.000002 0.000000 0.000000 -0.000000 0.000002 -0.000000 -0.000000 0.000002 -0.000000 -0.000000 -0.000001 -0.000001 -0.000000 
-125.847076 68.965973 0.502663 16.158909 -52.814486 15.736187 0.000001 -0.000000 -0.000000 -39.428852 -8.983431 10.425357 73.759179 3.398286 0.964347 22.216211 -6.269884 -1.510315 -0.000000 0.000001 0.000002 -0.000000 0.000001 0.000002 0.000000 0.000002 0.000002 -65.496542 -5.899038 -25.921056 39.468982 -5.871027 4.596477 16.010146 0.702258 4.037979 0.000000 0.000001 -0.000000 0.000000 0.000001 -0.000000 0.000001 0.000000 0.000000 21.073681 -5.508174 2.493002 4.272448 -10.401748 0.401188 4.858941 -10.229123 1.188915 -13.019130 3.785914 3.982942 18.284278 68.508594 -30.760488 0.000002 0.000000 -0.000001 0.000002 0.000000 -0.000001 0.000002 0.000000 -0.000001 1.737894 16.689980 8.884194 -48.666054 -27.304637 -12.677021 0.727092 -11.834536 -0.505873 -40.826602 0.611554 4.060388 11.895888 3.373131 -20.836959 5.758292 28.906163 11.598577 0.000001 -0.000001 0.000000 5.494373 6.238259 -67.682899 5.950176 7.312623 -73.753735 -0.000001 -0.000001 -0.000002 2.754601 11.316814 -76.381322 6.578755 9.524384 -73.212074 0.000004 -0.000002 0.000002 2.482419 23.874187 -68.387078 6.670276 8.510479 -71.686401 -0.000001 0.000000 -0.000004 -2.752993 19.481011 -56.530839 9.632831 8.705735 -89.332871 0.000003 0.000002 0.000002 -0.000000 0.000001 0.000000 14.855175 -3.519735 -4.773045 -68.801254 53.694480 31.251681 4.136416 129.118688 -3.174049 -66.395791 -4.743335 0.468110 0.277460 -1.521446 -1.570537 7.169041 -41.689678 -15.773521 -0.000002 0.000002 -0.000001 6.412810 -12.738433 14.389547 9.941747 -7.465148 101.743277 -0.000003 0.000001 -0.000001 2.653174 -11.302314 44.730933 9.916087 -9.880731 94.351202 0.000000 0.000001 0.000002 2.140157 -7.454490 61.765025 9.609239 -8.992480 89.388694 -0.000001 -0.000000 0.000002 -4.886653 -23.798134 68.396155 13.518264 -7.949245 112.864915 -0.000001 -0.000001 0.000000 -0.000000 -0.000001 -0.000000 0.000003 0.000000 -0.000000 0.000003 0.000000 -0.000000 0.000003 0.000000 -0.000000 0.000003 0.000000 -0.000000 0.000003 0.000000 -0.000000 -0.000001 0.000000 0.000000 0.000003 0.000000 -0.000000 0.000003 0.000000 -0.000000 -0.000001 0.000000 0.000000 -0.000001 0.000001 0.000000 -0.000001 0.000001 0.000000 0.000001 -0.000000 -0.000000 
